<svg width="41" height="12" viewBox="0 0 41 12" fill="none" xmlns="http://www.w3.org/2000/svg">
<path d="M10.3605 4.3374C9.36052 4.34016 8.49053 4.34257 7.62053 4.34497C6.38053 4.3484 5.14021 4.23182 3.90005 4.17525C3.2562 4.20827 2.61247 4.10792 2.00922 3.88047C1.7908 3.80146 1.56107 3.7582 1.32887 3.75235C1.22651 3.71604 1.11756 3.70208 1.00935 3.71143C0.901147 3.72077 0.796202 3.7532 0.701587 3.80653C0.606972 3.85986 0.524887 3.93285 0.46086 4.02058C0.396834 4.10831 0.352354 4.20874 0.330419 4.31511C0.203229 4.7521 0.123997 5.20163 0.0941214 5.65577C0.0556042 6.21182 0.057146 6.76993 0.098735 7.32576C0.106674 7.51698 0.186465 7.69816 0.322166 7.83312C0.457868 7.96807 0.63949 8.04686 0.830749 8.05374C1.23097 8.15727 1.6511 8.15611 2.05074 8.05037C2.55702 7.83109 3.11152 7.74686 3.66007 7.80592C5.59349 7.83392 7.52694 7.87191 9.46041 7.9199C9.73888 7.94116 10.016 7.97711 10.2907 8.02761C10.4018 8.2888 10.4993 8.55555 10.5829 8.8268C10.6985 9.3253 10.9626 9.77703 11.3403 10.1223C11.7179 10.4677 12.1914 10.6903 12.6983 10.761C14.3066 11.1558 15.9542 11.3693 17.6101 11.3974C19.3567 11.3926 21.1033 11.3577 22.8498 11.2929C27.5393 11.11 38.1089 10.9508 38.7089 10.9491C39.7089 10.9463 39.9371 10.2857 39.9361 9.94572C39.9986 7.23553 40.0831 1.61528 40.0729 1.52531C40.0214 1.00545 39.8108 0.766028 39.3007 0.727437C38.4305 0.66984 37.5504 0.642271 36.6804 0.644675C34.4304 0.650891 32.1704 0.657134 29.9204 0.66335C27.4605 0.670146 24.9905 0.67697 22.5303 0.623766C20.0566 0.553388 17.5813 0.694044 15.1314 1.04421C14.6479 1.10833 14.1701 1.20995 13.7023 1.34816C12.9326 1.51083 12.2189 1.87245 11.6326 2.39695C11.0462 2.92145 10.6076 3.59051 10.3605 4.3374ZM38.7834 8.9489C38.7849 9.03772 38.7688 9.12596 38.736 9.2085C38.7031 9.29104 38.6542 9.36622 38.592 9.42967C38.5299 9.49312 38.4557 9.54357 38.3738 9.57809C38.292 9.61261 38.2041 9.63051 38.1152 9.63075C37.3553 9.63285 36.6853 9.6347 36.0153 9.63655C34.0154 9.68874 31.9922 9.74766 29.9457 9.81332C27.286 9.90066 24.6162 10.008 21.9464 10.0854C20.4764 10.0895 19.0065 10.0935 17.5365 10.0976C17.1491 10.1458 16.7559 10.1059 16.3861 9.98078C16.3232 9.94724 16.271 9.89669 16.2355 9.8349C16.2 9.7731 16.1825 9.70256 16.1852 9.63133L16.2955 2.511C16.2969 2.40345 16.331 2.29889 16.3933 2.21119C16.4556 2.1235 16.5431 2.05683 16.6441 2.02003C17.0613 1.89075 17.4972 1.83208 17.9337 1.84647C19.7737 1.84139 21.6135 1.7763 23.4535 1.77122C25.9835 1.76423 28.5135 1.75724 31.0435 1.75025C32.9634 1.74495 37.0436 1.79368 38.4537 1.82978C38.5857 1.8342 38.7114 1.88777 38.806 1.98C38.9006 2.07224 38.9573 2.19648 38.9651 2.32837C39.0914 4.61803 38.7773 6.75891 38.7834 8.9489ZM11.2776 6.89488C10.9676 6.89573 3.97668 6.57504 2.77649 6.50836C2.75415 6.50715 2.73226 6.50153 2.7121 6.49185C2.69193 6.48216 2.67387 6.46858 2.65896 6.4519C2.64405 6.43522 2.63258 6.41576 2.6252 6.39464C2.61783 6.37351 2.6147 6.35114 2.61599 6.3288L2.61323 5.32881C2.84323 5.32817 9.0832 5.31093 10.6732 5.30654C10.828 5.30425 10.9789 5.25763 11.1081 5.1722C11.2372 5.08677 11.3392 4.96611 11.4019 4.82452C11.5531 4.4441 11.7395 4.07865 11.9589 3.73298C12.3321 3.25441 12.8448 2.90357 13.4261 2.72892C13.8166 2.53845 14.2414 2.42845 14.6752 2.40547C14.7763 2.41219 14.8716 2.45527 14.9435 2.52675C15.0154 2.59822 15.059 2.69329 15.0663 2.7944C15.1195 3.96425 15.0726 5.09438 15.0757 6.22438C15.129 7.33208 15.0953 8.44225 14.9749 9.54467C14.9644 9.59813 14.9433 9.64895 14.9129 9.69416C14.8825 9.73938 14.8433 9.77807 14.7978 9.80799C14.7523 9.83791 14.7012 9.85845 14.6476 9.86842C14.5941 9.87838 14.5391 9.87757 14.4858 9.86603C13.8955 9.74766 13.3451 9.62918 12.8048 9.50067C12.5081 9.44307 12.2371 9.2936 12.0301 9.07342C11.8231 8.85323 11.6906 8.57351 11.6514 8.27385C11.5503 7.87413 11.4192 7.47449 11.2777 6.93488L11.2776 6.89488ZM1.27431 5.72251L1.27412 5.65251L1.34412 5.65231L1.34442 5.76231L1.27431 5.72251Z" fill="#B59049"/>
<path d="M32.3896 3.96659C32.4682 3.96164 32.545 3.94043 32.6151 3.90431C32.6851 3.86818 32.7469 3.81792 32.7965 3.7567C32.8462 3.69548 32.8826 3.62462 32.9035 3.54862C32.9243 3.47262 32.9292 3.39311 32.9178 3.31513C32.9005 3.1808 32.8351 3.05729 32.7337 2.96748C32.6323 2.87766 32.5019 2.82763 32.3664 2.82665C32.2307 2.83161 32.1016 2.88659 32.0041 2.98102C31.9065 3.07545 31.8473 3.20264 31.8378 3.33811C31.8282 3.4165 31.8352 3.49604 31.8585 3.57152C31.8817 3.647 31.9207 3.7167 31.9728 3.77606C32.0249 3.83541 32.089 3.88307 32.1608 3.91591C32.2326 3.94874 32.3106 3.96602 32.3896 3.96659Z" fill="#B59049"/>
<path d="M24.6145 9.49787C24.7694 9.49244 24.9164 9.42827 25.0257 9.31839C25.135 9.20851 25.1983 9.06115 25.2029 8.90624C25.204 8.82839 25.1895 8.7511 25.1601 8.67899C25.1307 8.60687 25.0871 8.54141 25.0319 8.4865C24.9767 8.4316 24.911 8.38837 24.8388 8.3594C24.7665 8.33043 24.6891 8.31631 24.6113 8.31788C24.4775 8.32782 24.352 8.38631 24.2583 8.48233C24.1646 8.57836 24.1093 8.70531 24.1027 8.83928C24.0917 8.91633 24.0963 8.9948 24.1163 9.07003C24.1363 9.14525 24.1712 9.21569 24.2189 9.27714C24.2667 9.33859 24.3263 9.38981 24.3943 9.42773C24.4622 9.46565 24.5371 9.4895 24.6145 9.49787Z" fill="#B59049"/>
<path d="M21.3471 6.71684C21.4418 6.71405 21.5318 6.67506 21.5986 6.6079C21.6654 6.54074 21.7038 6.45053 21.7061 6.35584C21.7074 6.30819 21.6989 6.26078 21.6811 6.21653C21.6634 6.17227 21.6368 6.13211 21.603 6.09849C21.5692 6.06488 21.5289 6.03852 21.4846 6.02104C21.4402 6.00356 21.3928 5.99532 21.3451 5.99684C21.2628 6.00203 21.1854 6.03784 21.1282 6.09723C21.071 6.15661 21.0381 6.23526 21.036 6.31769C21.0291 6.36449 21.0318 6.41219 21.0439 6.45792C21.0559 6.50366 21.0771 6.54647 21.1062 6.58377C21.1353 6.62108 21.1716 6.6521 21.213 6.67497C21.2544 6.69784 21.3 6.71208 21.3471 6.71684Z" fill="#B59049"/>
<path d="M29.8105 7.88371C29.9052 7.88092 29.9952 7.84193 30.0619 7.77477C30.1287 7.70761 30.1672 7.6174 30.1695 7.52271C30.1707 7.47506 30.1622 7.42765 30.1445 7.3834C30.1268 7.33914 30.1002 7.29898 30.0664 7.26536C30.0326 7.23175 29.9923 7.20539 29.9479 7.18791C29.9036 7.17043 29.8561 7.1622 29.8085 7.16371C29.7262 7.1689 29.6488 7.20471 29.5916 7.2641C29.5344 7.32348 29.5015 7.40213 29.4994 7.48456C29.4925 7.53136 29.4952 7.57906 29.5072 7.62479C29.5193 7.67053 29.5405 7.71334 29.5696 7.75064C29.5987 7.78794 29.635 7.81897 29.6764 7.84184C29.7178 7.86471 29.7634 7.87895 29.8105 7.88371Z" fill="#B59049"/>
<path d="M35.9496 7.69657C36.0443 7.69378 36.1343 7.6548 36.2011 7.58764C36.2679 7.52048 36.3064 7.43027 36.3086 7.33558C36.3099 7.28792 36.3014 7.24052 36.2837 7.19626C36.2659 7.15201 36.2394 7.11184 36.2056 7.07823C36.1718 7.04461 36.1315 7.01826 36.0871 7.00078C36.0428 6.9833 35.9953 6.97506 35.9477 6.97657C35.8654 6.98177 35.788 7.01758 35.7308 7.07696C35.6736 7.13635 35.6407 7.215 35.6385 7.29743C35.6317 7.34422 35.6343 7.39193 35.6464 7.43766C35.6585 7.48339 35.6797 7.5262 35.7088 7.56351C35.7378 7.60081 35.7742 7.63184 35.8156 7.65471C35.857 7.67758 35.9026 7.69182 35.9496 7.69657Z" fill="#B59049"/>
<path d="M37.2807 4.30302C37.3754 4.30023 37.4654 4.26124 37.5322 4.19408C37.5989 4.12693 37.6374 4.03671 37.6397 3.94202C37.6409 3.89437 37.6325 3.84696 37.6147 3.80271C37.597 3.75846 37.5704 3.71829 37.5366 3.68467C37.5028 3.65106 37.4625 3.6247 37.4182 3.60722C37.3738 3.58974 37.3264 3.58151 37.2787 3.58302C37.1964 3.58821 37.119 3.62403 37.0618 3.68341C37.0046 3.74279 36.9717 3.82145 36.9696 3.90388C36.9627 3.95067 36.9654 3.99838 36.9775 4.04411C36.9895 4.08984 37.0107 4.13265 37.0398 4.16995C37.0689 4.20726 37.1052 4.23828 37.1466 4.26115C37.188 4.28402 37.2336 4.29827 37.2807 4.30302Z" fill="#B59049"/>
<path d="M16.9505 7.86918C16.9733 8.02651 17.0557 8.16906 17.1807 8.26735C17.3057 8.36564 17.4636 8.41217 17.6219 8.39732C17.7493 8.35079 17.8605 8.26825 17.9418 8.15973C18.0232 8.05121 18.0713 7.92139 18.0802 7.78605C18.0845 7.70568 18.0716 7.62532 18.0426 7.55027C18.0135 7.47521 17.9689 7.40716 17.9117 7.35059C17.8544 7.29402 17.7858 7.25022 17.7104 7.22206C17.635 7.19391 17.5545 7.18204 17.4742 7.18724C17.3939 7.19243 17.3156 7.21458 17.2445 7.25222C17.1733 7.28986 17.111 7.34214 17.0615 7.40562C17.012 7.46909 16.9765 7.54233 16.9574 7.6205C16.9382 7.69868 16.9359 7.78002 16.9504 7.85918L16.9505 7.86918Z" fill="#B59049"/>
<path d="M18.1715 4.63566C18.2498 4.64227 18.3287 4.63315 18.4034 4.60885C18.4782 4.58455 18.5473 4.54555 18.6068 4.49415C18.6663 4.44275 18.7149 4.37998 18.7498 4.30953C18.7847 4.23907 18.8051 4.16236 18.8099 4.08389C18.8129 3.94613 18.764 3.81228 18.673 3.70883C18.5819 3.60538 18.4554 3.53986 18.3184 3.52525C18.1848 3.50152 18.0471 3.52994 17.9338 3.60468C17.8206 3.67941 17.7403 3.79475 17.7095 3.92693C17.6907 4.00395 17.6878 4.08401 17.7012 4.16216C17.7145 4.24031 17.7437 4.3149 17.787 4.38132C17.8303 4.44774 17.8868 4.50457 17.9529 4.54832C18.019 4.59207 18.0934 4.62179 18.1715 4.63566Z" fill="#B59049"/>
<path d="M26.2741 5.53333C26.4115 5.53681 26.5453 5.48966 26.6502 5.40086C26.755 5.31207 26.8236 5.18782 26.8428 5.05176C26.8523 4.97316 26.8456 4.89346 26.8231 4.81755C26.8006 4.74165 26.7628 4.67114 26.7121 4.61039C26.6613 4.54964 26.5986 4.49992 26.5279 4.4643C26.4572 4.42867 26.38 4.4079 26.301 4.40325C26.222 4.40426 26.1441 4.42196 26.0725 4.4552C26.0008 4.48843 25.937 4.53645 25.8853 4.59609C25.8335 4.65573 25.7949 4.72565 25.7721 4.80125C25.7492 4.87686 25.7426 4.95644 25.7527 5.03477C25.7583 5.16917 25.8157 5.2962 25.9129 5.38916C26.0101 5.48213 26.1396 5.5338 26.2741 5.53333Z" fill="#B59049"/>
</svg>
