<svg width="41" height="12" viewBox="0 0 41 12" fill="none" xmlns="http://www.w3.org/2000/svg">
<path d="M29.7401 4.3374C30.7401 4.34016 31.6101 4.34257 32.4801 4.34497C33.7201 4.3484 34.9604 4.23182 36.2005 4.17525C36.8444 4.20827 37.4881 4.10792 38.0914 3.88047C38.3098 3.80146 38.5395 3.7582 38.7717 3.75235C38.8741 3.71604 38.983 3.70208 39.0912 3.71143C39.1994 3.72077 39.3044 3.7532 39.399 3.80653C39.4936 3.85986 39.5757 3.93285 39.6397 4.02058C39.7038 4.10831 39.7482 4.20874 39.7702 4.31511C39.8974 4.7521 39.9766 5.20163 40.0065 5.65577C40.045 6.21182 40.0434 6.76993 40.0019 7.32576C39.9939 7.51698 39.9141 7.69816 39.7784 7.83312C39.6427 7.96807 39.4611 8.04686 39.2698 8.05374C38.8696 8.15727 38.4495 8.15611 38.0498 8.05037C37.5436 7.83109 36.9891 7.74686 36.4405 7.80592C34.5071 7.83392 32.5736 7.87191 30.6402 7.9199C30.3617 7.94116 30.0846 7.97711 29.8099 8.02761C29.6988 8.2888 29.6012 8.55555 29.5177 8.8268C29.402 9.3253 29.138 9.77703 28.7603 10.1223C28.3826 10.4677 27.9091 10.6903 27.4023 10.761C25.7939 11.1558 24.1464 11.3693 22.4905 11.3974C20.7439 11.3926 18.9973 11.3577 17.2508 11.2929C12.5613 11.11 1.99169 10.9508 1.39169 10.9491C0.391698 10.9463 0.163519 10.2857 0.164458 9.94572C0.101946 7.23553 0.0174733 1.61528 0.0277202 1.52531C0.0791558 1.00545 0.289821 0.766028 0.799928 0.727437C1.67009 0.66984 2.55017 0.642271 3.42017 0.644675C5.67016 0.650891 7.93015 0.657134 10.1801 0.66335C12.6401 0.670146 15.1101 0.67697 17.5703 0.623766C20.044 0.553388 22.5193 0.694044 24.9691 1.04421C25.4527 1.10833 25.9305 1.20995 26.3983 1.34816C27.168 1.51083 27.8816 1.87245 28.468 2.39695C29.0543 2.92145 29.493 3.59051 29.7401 4.3374ZM1.31722 8.9489C1.31565 9.03772 1.33176 9.12596 1.3646 9.2085C1.39745 9.29104 1.44639 9.36622 1.50856 9.42967C1.57073 9.49312 1.6449 9.54357 1.72675 9.57809C1.8086 9.61261 1.89651 9.63051 1.98534 9.63075C2.74533 9.63285 3.41533 9.6347 4.08533 9.63655C6.08519 9.68874 8.10837 9.74766 10.1549 9.81332C12.8146 9.90066 15.4843 10.008 18.1541 10.0854C19.6241 10.0895 21.0941 10.0935 22.5641 10.0976C22.9515 10.1458 23.3447 10.1059 23.7145 9.98078C23.7774 9.94724 23.8296 9.89669 23.8651 9.8349C23.9006 9.7731 23.9181 9.70256 23.9154 9.63133L23.8051 2.511C23.8037 2.40345 23.7695 2.29889 23.7073 2.21119C23.645 2.1235 23.5575 2.05683 23.4564 2.02003C23.0393 1.89075 22.6034 1.83208 22.1669 1.84647C20.3269 1.84139 18.4871 1.7763 16.6471 1.77122C14.1171 1.76423 11.5871 1.75724 9.05714 1.75025C7.13714 1.74495 3.05699 1.79368 1.64689 1.82978C1.51484 1.8342 1.3892 1.88777 1.2946 1.98C1.2 2.07224 1.14326 2.19648 1.13551 2.32837C1.00918 4.61803 1.32327 6.75891 1.31722 8.9489ZM28.823 6.89488C29.133 6.89573 36.1239 6.57504 37.3241 6.50836C37.3464 6.50715 37.3683 6.50153 37.3885 6.49185C37.4087 6.48216 37.4267 6.46858 37.4416 6.4519C37.4565 6.43522 37.468 6.41576 37.4754 6.39464C37.4828 6.37351 37.4859 6.35114 37.4846 6.3288L37.4874 5.32881C37.2574 5.32817 31.0174 5.31093 29.4274 5.30654C29.2726 5.30425 29.1216 5.25763 28.9925 5.1722C28.8634 5.08677 28.7614 4.96611 28.6987 4.82452C28.5475 4.4441 28.361 4.07865 28.1417 3.73298C27.7685 3.25441 27.2558 2.90357 26.6745 2.72892C26.284 2.53845 25.8592 2.42845 25.4254 2.40547C25.3242 2.41219 25.2289 2.45527 25.1571 2.52675C25.0852 2.59822 25.0416 2.69329 25.0343 2.7944C24.9811 3.96425 25.028 5.09438 25.0248 6.22438C24.9716 7.33208 25.0053 8.44225 25.1257 9.54467C25.1362 9.59813 25.1573 9.64895 25.1877 9.69416C25.2181 9.73938 25.2572 9.77807 25.3028 9.80799C25.3483 9.83791 25.3994 9.85845 25.4529 9.86842C25.5065 9.87838 25.5615 9.87757 25.6148 9.86603C26.2051 9.74766 26.7554 9.62918 27.2958 9.50067C27.5925 9.44307 27.8635 9.2936 28.0705 9.07342C28.2775 8.85323 28.41 8.57351 28.4492 8.27385C28.5503 7.87413 28.6814 7.47449 28.8229 6.93488L28.823 6.89488ZM38.8263 5.72251L38.8265 5.65251L38.7565 5.65231L38.7562 5.76231L38.8263 5.72251Z" fill="#B59049"/>
<path d="M7.71101 3.96659C7.63235 3.96164 7.55557 3.94043 7.48552 3.90431C7.41547 3.86818 7.35368 3.81792 7.30404 3.7567C7.2544 3.69548 7.218 3.62462 7.19714 3.54862C7.17627 3.47262 7.17139 3.39311 7.18281 3.31513C7.2001 3.1808 7.26549 3.05729 7.36687 2.96748C7.46824 2.87766 7.59873 2.82763 7.73416 2.82665C7.86987 2.83161 7.99894 2.88659 8.09653 2.98102C8.19412 3.07545 8.25333 3.20264 8.26275 3.33811C8.27241 3.4165 8.26538 3.49604 8.24212 3.57152C8.21886 3.647 8.1799 3.7167 8.12779 3.77606C8.07569 3.83541 8.01161 3.88307 7.93978 3.91591C7.86795 3.94874 7.78999 3.96602 7.71101 3.96659Z" fill="#B59049"/>
<path d="M15.4861 9.49787C15.3312 9.49244 15.1842 9.42827 15.0749 9.31839C14.9656 9.20851 14.9023 9.06115 14.8977 8.90624C14.8966 8.82839 14.9111 8.7511 14.9405 8.67899C14.9698 8.60687 15.0134 8.54141 15.0686 8.4865C15.1239 8.4316 15.1896 8.38837 15.2618 8.3594C15.3341 8.33043 15.4115 8.31631 15.4893 8.31788C15.6231 8.32782 15.7486 8.38631 15.8423 8.48233C15.9359 8.57836 15.9913 8.70531 15.9979 8.83928C16.0089 8.91633 16.0043 8.9948 15.9843 9.07003C15.9643 9.14525 15.9294 9.21569 15.8817 9.27714C15.8339 9.33859 15.7743 9.38981 15.7063 9.42773C15.6383 9.46565 15.5634 9.4895 15.4861 9.49787Z" fill="#B59049"/>
<path d="M18.7535 6.71684C18.6588 6.71405 18.5688 6.67506 18.502 6.6079C18.4352 6.54074 18.3967 6.45053 18.3945 6.35584C18.3932 6.30819 18.4017 6.26078 18.4195 6.21653C18.4372 6.17227 18.4638 6.13211 18.4976 6.09849C18.5314 6.06488 18.5717 6.03852 18.616 6.02104C18.6604 6.00356 18.7078 5.99532 18.7555 5.99684C18.8378 6.00203 18.9151 6.03784 18.9723 6.09723C19.0296 6.15661 19.0625 6.23526 19.0646 6.31769C19.0715 6.36449 19.0688 6.41219 19.0567 6.45792C19.0447 6.50366 19.0234 6.54647 18.9944 6.58377C18.9653 6.62108 18.9289 6.6521 18.8875 6.67497C18.8461 6.69784 18.8005 6.71208 18.7535 6.71684Z" fill="#B59049"/>
<path d="M10.2901 7.88371C10.1954 7.88092 10.1054 7.84193 10.0386 7.77477C9.97185 7.70761 9.93336 7.6174 9.9311 7.52271C9.92985 7.47506 9.93835 7.42765 9.95607 7.3834C9.9738 7.33914 10.0004 7.29898 10.0342 7.26536C10.068 7.23175 10.1083 7.20539 10.1526 7.18791C10.197 7.17043 10.2444 7.1622 10.2921 7.16371C10.3744 7.1689 10.4518 7.20471 10.509 7.2641C10.5662 7.32348 10.5991 7.40213 10.6012 7.48456C10.6081 7.53136 10.6054 7.57906 10.5933 7.62479C10.5813 7.67053 10.5601 7.71334 10.531 7.75064C10.5019 7.78794 10.4656 7.81897 10.4242 7.84184C10.3828 7.86471 10.3372 7.87895 10.2901 7.88371Z" fill="#B59049"/>
<path d="M4.15095 7.69657C4.05627 7.69378 3.96627 7.6548 3.89948 7.58764C3.8327 7.52048 3.79421 7.43027 3.79194 7.33558C3.79069 7.28792 3.79919 7.24052 3.81691 7.19626C3.83464 7.15201 3.86121 7.11184 3.89502 7.07823C3.92882 7.04461 3.96913 7.01826 4.01348 7.00078C4.05783 6.9833 4.10529 6.97506 4.15293 6.97657C4.23523 6.98177 4.3126 7.01758 4.36981 7.07696C4.42702 7.13635 4.45993 7.215 4.46205 7.29743C4.46893 7.34422 4.46625 7.39193 4.45418 7.43766C4.44211 7.48339 4.4209 7.5262 4.39182 7.56351C4.36275 7.60081 4.32641 7.63184 4.28501 7.65471C4.24361 7.67758 4.198 7.69182 4.15095 7.69657Z" fill="#B59049"/>
<path d="M2.81989 4.30302C2.72522 4.30023 2.63522 4.26124 2.56843 4.19408C2.50164 4.12693 2.46315 4.03671 2.46089 3.94202C2.45964 3.89437 2.46813 3.84696 2.48586 3.80271C2.50358 3.75846 2.53016 3.71829 2.56396 3.68467C2.59776 3.65106 2.63808 3.6247 2.68243 3.60722C2.72678 3.58974 2.77423 3.58151 2.82188 3.58302C2.90418 3.58821 2.98154 3.62403 3.03876 3.68341C3.09597 3.74279 3.12887 3.82145 3.13099 3.90388C3.13787 3.95067 3.1352 3.99838 3.12313 4.04411C3.11106 4.08984 3.08985 4.13265 3.06077 4.16995C3.03169 4.20726 2.99536 4.23828 2.95396 4.26115C2.91256 4.28402 2.86695 4.29827 2.81989 4.30302Z" fill="#B59049"/>
<path d="M23.1501 7.86918C23.1273 8.02651 23.0448 8.16906 22.9199 8.26735C22.7949 8.36564 22.637 8.41217 22.4787 8.39732C22.3513 8.35079 22.2401 8.26825 22.1588 8.15973C22.0774 8.05121 22.0293 7.92139 22.0204 7.78605C22.0161 7.70568 22.0289 7.62532 22.058 7.55027C22.0871 7.47521 22.1317 7.40716 22.1889 7.35059C22.2462 7.29402 22.3148 7.25022 22.3902 7.22206C22.4656 7.19391 22.5461 7.18204 22.6264 7.18724C22.7067 7.19243 22.785 7.21458 22.8561 7.25222C22.9273 7.28986 22.9896 7.34214 23.0391 7.40562C23.0886 7.46909 23.1241 7.54233 23.1432 7.6205C23.1623 7.69868 23.1647 7.78002 23.1502 7.85918L23.1501 7.86918Z" fill="#B59049"/>
<path d="M21.9291 4.63566C21.8508 4.64227 21.7719 4.63315 21.6972 4.60885C21.6224 4.58455 21.5533 4.54555 21.4938 4.49415C21.4343 4.44275 21.3857 4.37998 21.3508 4.30953C21.3159 4.23907 21.2955 4.16236 21.2907 4.08389C21.2877 3.94613 21.3366 3.81228 21.4276 3.70883C21.5186 3.60538 21.6452 3.53986 21.7822 3.52525C21.9158 3.50152 22.0535 3.52994 22.1667 3.60468C22.28 3.67941 22.3603 3.79475 22.3911 3.92693C22.4099 4.00395 22.4127 4.08401 22.3994 4.16216C22.3861 4.24031 22.3569 4.3149 22.3136 4.38132C22.2703 4.44774 22.2138 4.50457 22.1477 4.54832C22.0816 4.59207 22.0072 4.62179 21.9291 4.63566Z" fill="#B59049"/>
<path d="M13.8265 5.53333C13.6891 5.53681 13.5553 5.48966 13.4504 5.40086C13.3456 5.31207 13.277 5.18782 13.2578 5.05176C13.2483 4.97316 13.255 4.89346 13.2775 4.81755C13.3 4.74165 13.3378 4.67114 13.3885 4.61039C13.4393 4.54964 13.5019 4.49992 13.5726 4.4643C13.6433 4.42867 13.7206 4.4079 13.7996 4.40325C13.8786 4.40426 13.9565 4.42196 14.0281 4.4552C14.0997 4.48843 14.1636 4.53645 14.2153 4.59609C14.2671 4.65573 14.3057 4.72565 14.3285 4.80125C14.3514 4.87686 14.358 4.95644 14.3479 5.03477C14.3423 5.16917 14.2849 5.2962 14.1877 5.38916C14.0905 5.48213 13.961 5.5338 13.8265 5.53333Z" fill="#B59049"/>
</svg>
