<svg width="24" height="14" viewBox="0 0 24 14" fill="none" xmlns="http://www.w3.org/2000/svg">
<path fill-rule="evenodd" clip-rule="evenodd" d="M1.91924 0.5H22.0805C22.7242 0.5 23.2505 0.81575 23.2505 1.202V1.298C23.2505 1.68425 22.7242 2 22.0805 2H1.91924C1.27549 2 0.750488 1.68425 0.750488 1.298V1.202C0.750488 0.81575 1.27549 0.5 1.91924 0.5ZM2.99999 7C2.99999 7.553 2.55199 8 1.99999 8C1.44799 8 0.999988 7.553 0.999988 7C0.999988 6.447 1.44799 6 1.99999 6C2.55199 6 2.99999 6.447 2.99999 7ZM6.91924 6.26388H22.0805C22.7242 6.26388 23.2505 6.57963 23.2505 6.96588V7.06188C23.2505 7.44813 22.7242 7.76388 22.0805 7.76388H6.91924C6.27549 7.76388 5.75049 7.44813 5.75049 7.06188V6.96588C5.75049 6.57963 6.27549 6.26388 6.91924 6.26388ZM22.0805 12H1.91924C1.27549 12 0.750488 12.3158 0.750488 12.702V12.798C0.750488 13.1842 1.27549 13.5 1.91924 13.5H22.0805C22.7242 13.5 23.2505 13.1842 23.2505 12.798V12.702C23.2505 12.3158 22.7242 12 22.0805 12Z" fill="white"/>
</svg>
