<svg width="15" height="18" viewBox="0 0 15 18" fill="none" xmlns="http://www.w3.org/2000/svg">
<path fill-rule="evenodd" clip-rule="evenodd" d="M9.95924 15.0234C9.29224 15.6604 8.40924 16.0064 7.47124 16.0004H7.47024C6.53324 15.9924 5.65624 15.6314 5.00024 14.9844C3.65124 13.6554 3.66924 11.5074 5.04124 10.1984L7.20424 8.1304C7.29324 8.0454 7.41324 7.9994 7.53924 8.0004C7.66424 8.0014 7.78424 8.0494 7.87124 8.1354L10.0002 10.2364C11.3492 11.5664 11.3312 13.7134 9.95924 15.0234ZM12.8062 4.9864L8.21324 0.295397C7.83124 -0.0956034 7.19424 -0.0956034 6.79824 0.280397C6.58424 0.484397 6.47024 0.773397 6.48924 1.0684C6.49824 1.2084 6.49824 1.3464 6.49824 1.4944C6.49824 4.0514 5.85524 5.5634 5.50024 5.9374C5.34924 5.7714 5.07524 5.3354 4.84424 4.4444C4.75424 4.0964 4.48424 3.8234 4.13724 3.7294C3.78824 3.6374 3.41824 3.7364 3.16524 3.9914L2.18124 4.9844C-0.72976 7.9514 -0.725759 12.7854 2.18924 15.7564C3.60224 17.2024 5.48524 17.9984 7.49224 18.0004H7.50024C9.50924 18.0004 11.3962 17.2044 12.8152 15.7574C15.7322 12.7854 15.7272 7.9514 12.8062 4.9864Z" fill="#B59049"/>
</svg>
