<svg width="28" height="23" viewBox="0 0 28 23" fill="none" xmlns="http://www.w3.org/2000/svg">
<path d="M3.50015 11.5927L14.2189 22.0927L24.5001 11.5927C25.6547 10.4382 26.3033 8.87236 26.3033 7.23962C26.3033 5.60688 25.6547 4.04102 24.5001 2.8865C23.3456 1.73198 21.7798 1.08337 20.147 1.08337C18.5143 1.08337 16.9484 1.73198 15.7939 2.8865C15.2243 3.45465 14.7726 4.12979 14.4647 4.8731C14.1569 5.6164 13.999 6.41322 14.0001 7.21775C14.0002 6.00627 13.6411 4.82198 12.968 3.81465C12.295 2.80732 11.3384 2.02219 10.2191 1.55857C9.09989 1.09494 7.86829 0.973649 6.6801 1.21002C5.4919 1.44639 4.40049 2.02981 3.5439 2.8865C2.38872 4.03797 1.73581 5.59957 1.72762 7.23061C1.71942 8.86164 2.3566 10.4297 3.50015 11.5927V11.5927Z" stroke="#B59049" stroke-width="1.75" stroke-linecap="round" stroke-linejoin="round"/>
</svg>
