<svg width="25" height="25" viewBox="0 0 25 25" fill="none" xmlns="http://www.w3.org/2000/svg">
<g opacity="0.8">
<path d="M12.5 1.5625C10.6352 1.5625 8.84677 2.30329 7.52816 3.62191C6.20954 4.94052 5.46875 6.72895 5.46875 8.59375C5.46875 10.125 5.81055 11.541 6.64062 12.6953L12.5 23.4375L18.1641 12.6953C18.9349 11.6525 19.4001 10.4157 19.5076 9.12333C19.615 7.83102 19.3605 6.53431 18.7724 5.37852C18.1844 4.22273 17.2861 3.25353 16.1783 2.57953C15.0704 1.90554 13.7967 1.55337 12.5 1.5625V1.5625Z" stroke="white" stroke-width="1.25" stroke-linecap="round" stroke-linejoin="round"/>
<path d="M12.5 10.9375C13.7944 10.9375 14.8438 9.88817 14.8438 8.59375C14.8438 7.29933 13.7944 6.25 12.5 6.25C11.2056 6.25 10.1562 7.29933 10.1562 8.59375C10.1562 9.88817 11.2056 10.9375 12.5 10.9375Z" stroke="white" stroke-width="1.25" stroke-linecap="round" stroke-linejoin="round"/>
</g>
</svg>
