<svg width="12" height="11" viewBox="0 0 12 11" fill="none" xmlns="http://www.w3.org/2000/svg">
<path fill-rule="evenodd" clip-rule="evenodd" d="M8.3091 6.61619H4.05667L3.14288 3.26694H9.98373L8.3091 6.61619ZM10.9331 2.67988C10.7282 2.34831 10.3732 2.1507 9.98355 2.1507H2.83847L2.49406 0.887474C2.42763 0.644653 2.20714 0.476074 1.95539 0.476074H0.838971C0.530281 0.476074 0.280762 0.726152 0.280762 1.03428C0.280762 1.34241 0.530281 1.59249 0.838971 1.59249H1.52892L3.09134 7.32139C3.15777 7.56421 3.37826 7.73279 3.63002 7.73279H8.6539C8.86546 7.73279 9.0586 7.61333 9.15349 7.4241L10.9822 3.76616C11.1569 3.41728 11.1379 3.01146 10.9331 2.67988ZM3.35112 8.84903C2.88892 8.84903 2.5138 9.22359 2.5138 9.68634C2.5138 10.1491 2.88892 10.5237 3.35112 10.5237C3.81331 10.5237 4.18843 10.1491 4.18843 9.68634C4.18843 9.22359 3.81331 8.84903 3.35112 8.84903ZM8.09589 9.68634C8.09589 9.22359 8.47101 8.84903 8.93321 8.84903C9.3954 8.84903 9.77052 9.22359 9.77052 9.68634C9.77052 10.1491 9.3954 10.5237 8.93321 10.5237C8.47101 10.5237 8.09589 10.1491 8.09589 9.68634Z" fill="#B59049"/>
</svg>
