<svg width="20" height="20" viewBox="0 0 20 20" fill="none" xmlns="http://www.w3.org/2000/svg">
<g clip-path="url(#clip0)">
<path d="M17.3498 17.8049H2.6998C1.2498 17.8049 0.0498047 16.6341 0.0498047 15.2195V4.78049C0.0498047 3.36585 1.2498 2.19512 2.6998 2.19512H17.3498C18.7998 2.19512 19.9998 3.36585 19.9998 4.78049V15.1707C19.9998 16.6341 18.7998 17.8049 17.3498 17.8049ZM2.6998 3.17073C1.7498 3.17073 0.999805 3.90244 0.999805 4.78049V15.1707C0.999805 16.0488 1.7498 16.7805 2.6498 16.7805H17.2998C18.1998 16.7805 18.9498 16.0488 18.9498 15.1707V4.78049C18.9498 3.90244 18.1998 3.17073 17.2998 3.17073H2.6998Z" fill="white"/>
<path d="M9.99988 11.6585C9.14988 11.6585 8.34988 11.2683 7.74988 10.6341L2.99988 5.07317C2.79988 4.87805 2.84988 4.58537 3.04988 4.39024C3.24988 4.19512 3.59988 4.2439 3.74988 4.43902L8.54988 10.0488C8.89988 10.4878 9.44988 10.7317 9.99988 10.7317C10.5499 10.7317 11.0999 10.4878 11.4499 10.0488L16.1999 4.4878C16.3999 4.29268 16.6999 4.2439 16.8999 4.43902C17.0999 4.63415 17.1499 4.92683 16.9499 5.12195L12.1999 10.6829C11.6999 11.3171 10.8999 11.6585 9.99988 11.6585Z" fill="white"/>
<path d="M17.7498 15.5122C17.5998 15.5122 17.4498 15.4634 17.3498 15.3171L13.8998 11.3171C13.6998 11.1219 13.7498 10.7805 13.9498 10.6341C14.1498 10.439 14.4998 10.4878 14.6498 10.6829L18.0998 14.6829C18.2998 14.878 18.2498 15.2195 18.0498 15.3659C17.9998 15.4634 17.8498 15.5122 17.7498 15.5122Z" fill="white"/>
<path d="M2.24978 15.4634C2.14978 15.4634 1.99978 15.4146 1.94978 15.3659C1.74978 15.1707 1.69978 14.878 1.89978 14.6829L5.29978 10.7317C5.49978 10.5366 5.79978 10.4878 5.99978 10.6829C6.19978 10.878 6.24978 11.1707 6.04978 11.3659L2.64978 15.3171C2.54978 15.4146 2.39978 15.4634 2.24978 15.4634Z" fill="white"/>
</g>
<defs>
<clipPath id="clip0">
<rect width="20" height="20" fill="white"/>
</clipPath>
</defs>
</svg>
