<svg width="20" height="20" viewBox="0 0 20 20" fill="none" xmlns="http://www.w3.org/2000/svg">
<g clip-path="url(#clip0)">
<path d="M10 20C4.5 20 0 15.5 0 10C0 8.15 0.5 6.35 1.5 4.8C1.6 4.55 1.95 4.5 2.15 4.6C2.4 4.75 2.45 5.05 2.3 5.3C1.45 6.7 1 8.35 1 10C1 14.95 5.05 19 10 19C14.95 19 19 14.95 19 10C19 5.05 15 1 10 1C8.5 1 7.05 1.35 5.75 2.05C5.5 2.2 5.2 2.1 5.05 1.85C4.9 1.6 5 1.3 5.25 1.15C6.75 0.4 8.35 0 10 0C15.5 0 20 4.5 20 10C20 15.5 15.55 20 10 20Z" fill="white"/>
<path d="M14.55 15.05C14.4 15.05 14.3 15 14.2 14.9L9.65 10.35C9.55 10.25 9.5 10.15 9.5 10V2.15C9.5 1.85 9.7 1.65 10 1.65C10.3 1.65 10.5 1.85 10.5 2.15V9.8L14.9 14.2C15.1 14.4 15.1 14.7 14.9 14.9C14.8 15 14.7 15.05 14.55 15.05Z" fill="white"/>
</g>
<defs>
<clipPath id="clip0">
<rect width="20" height="20" fill="white"/>
</clipPath>
</defs>
</svg>
